# xmcd CD database file
#
# Track frame offsets:
#	150
#	15287
#	30835
#	49397
#	75477
#	97020
#	114457
#	134455
#	156957
#	177602
#	193442
#	208575
#	225835
#	245945
#	260285
#	283632
#	306307
#
# Disc length: 4368 seconds
#
# Revision: 1
# Processed by: cddbd v1.4PL0 Copyright (c) Steve Scherf et al.
# Submitted via: CDex 1.50Beta7
#
DISCID=eb110e11
DTITLE=Ian Tyson - Live at Longview
DYEAR=2002
DGENRE=Country
TTITLE0=Navajo Rug
TTITLE1=Old Corrals and Sagebrush
TTITLE2=Desert Motel
TTITLE3=I Outgrew the Wagon
TTITLE4=Jerry Ambler
TTITLE5=Sorta Together
TTITLE6=Fifty Years Ago
TTITLE7=Someday Soon
TTITLE8=Smugglers Cove
TTITLE9=Casey Tibbs
TTITLE10=Blue Moon
TTITLE11=Somewhere in the Rubies
TTITLE12=M.C. Horses
TTITLE13=Horsethief Moon
TTITLE14=Little High Plans Town
TTITLE15=Bob Fudge
TTITLE16=Magpie
EXTD=YEAR: 2002
EXTT0=
EXTT1=
EXTT2=
EXTT3=
EXTT4=
EXTT5=
EXTT6=
EXTT7=
EXTT8=
EXTT9=
EXTT10=
EXTT11=
EXTT12=
EXTT13=
EXTT14=
EXTT15=
EXTT16=
PLAYORDER=
